{
  "accessors": [
    {
      "bufferView": 2,
      "componentType": 5126,
      "count": 65532,
      "max": [
        565.09796142578125,
        527.3046875,
        342.96661376953125
      ],
      "min": [
        -434.90203857421875,
        -255.97465515136719,
        -338.68490600585938
      ],
      "type": "VEC3"
    },
    {
      "bufferView": 2,
      "byteOffset": 786384,
      "componentType": 5126,
      "count": 65532,
      "max": [
        0.99999970197677612,
        0.99999892711639404,
        0.99998432397842407
      ],
      "min": [
        -0.99995589256286621,
        -0.99999791383743286,
        -0.99991607666015625
      ],
      "type": "VEC3"
    },
    {
      "bufferView": 3,
      "componentType": 5126,
      "count": 65532,
      "max": [
        0.99999791383743286,
        0.9999961256980896,
        0.99997705221176147,
        1
      ],
      "min": [
        -0.99999135732650757,
        -0.90823566913604736,
        -0.99894118309020996,
        -1
      ],
      "type": "VEC4"
    },
    {
      "bufferView": 1,
      "componentType": 5126,
      "count": 65532,
      "max": [
        0.99993699789047241,
        0.99983745813369751
      ],
      "min": [
        6.4448031480424106e-05,
        0.00069218873977661133
      ],
      "type": "VEC2"
    },
    {
      "bufferView": 0,
      "componentType": 5125,
      "count": 309168,
      "max": [
        65531
      ],
      "min": [
        0
      ],
      "type": "SCALAR"
    },
    {
      "bufferView": 2,
      "byteOffset": 1572768,
      "componentType": 5126,
      "count": 65532,
      "max": [
        562.5462646484375,
        527.50762939453125,
        345.07205200195312
      ],
      "min": [
        -434.47781372070312,
        -258.22906494140625,
        -338.15841674804688
      ],
      "type": "VEC3"
    },
    {
      "bufferView": 2,
      "byteOffset": 2359152,
      "componentType": 5126,
      "count": 65532,
      "max": [
        0.99999892711639404,
        0.99999642372131348,
        0.99999529123306274
      ],
      "min": [
        -0.99995583295822144,
        -0.99999630451202393,
        -0.99999779462814331
      ],
      "type": "VEC3"
    },
    {
      "bufferView": 3,
      "byteOffset": 1048512,
      "componentType": 5126,
      "count": 65532,
      "max": [
        0.99999791383743286,
        0.99999934434890747,
        0.99999862909317017,
        1
      ],
      "min": [
        -0.99998211860656738,
        -0.95594155788421631,
        -0.99998122453689575,
        -1
      ],
      "type": "VEC4"
    },
    {
      "bufferView": 1,
      "byteOffset": 524256,
      "componentType": 5126,
      "count": 65532,
      "max": [
        0.99975556135177612,
        0.9995805025100708
      ],
      "min": [
        6.2502615037374198e-05,
        0.00012505054473876953
      ],
      "type": "VEC2"
    },
    {
      "bufferView": 0,
      "byteOffset": 1236672,
      "componentType": 5125,
      "count": 288915,
      "max": [
        65531
      ],
      "min": [
        0
      ],
      "type": "SCALAR"
    },
    {
      "bufferView": 2,
      "byteOffset": 3145536,
      "componentType": 5126,
      "count": 65532,
      "max": [
        565.09234619140625,
        527.50762939453125,
        344.79351806640625
      ],
      "min": [
        -434.90203857421875,
        -258.36190795898438,
        -337.96017456054688
      ],
      "type": "VEC3"
    },
    {
      "bufferView": 2,
      "byteOffset": 3931920,
      "componentType": 5126,
      "count": 65532,
      "max": [
        0.99999970197677612,
        0.99999958276748657,
        0.99999386072158813
      ],
      "min": [
        -0.99998152256011963,
        -0.99999868869781494,
        -0.99993854761123657
      ],
      "type": "VEC3"
    },
    {
      "bufferView": 3,
      "byteOffset": 2097024,
      "componentType": 5126,
      "count": 65532,
      "max": [
        0.99999713897705078,
        0.99999988079071045,
        0.99998915195465088,
        1
      ],
      "min": [
        -0.99999034404754639,
        -0.92723560333251953,
        -0.99994194507598877,
        -1
      ],
      "type": "VEC4"
    },
    {
      "bufferView": 1,
      "byteOffset": 1048512,
      "componentType": 5126,
      "count": 65532,
      "max": [
        0.99989712238311768,
        0.99991559982299805
      ],
      "min": [
        6.0841364756925032e-05,
        0.00022172927856445312
      ],
      "type": "VEC2"
    },
    {
      "bufferView": 0,
      "byteOffset": 2392332,
      "componentType": 5125,
      "count": 257199,
      "max": [
        65531
      ],
      "min": [
        0
      ],
      "type": "SCALAR"
    },
    {
      "bufferView": 2,
      "byteOffset": 4718304,
      "componentType": 5126,
      "count": 57921,
      "max": [
        564.54339599609375,
        527.50762939453125,
        345.0592041015625
      ],
      "min": [
        -434.70913696289062,
        -275.357666015625,
        -338.20620727539062
      ],
      "type": "VEC3"
    },
    {
      "bufferView": 2,
      "byteOffset": 5413356,
      "componentType": 5126,
      "count": 57921,
      "max": [
        0.99998033046722412,
        0.99999958276748657,
        0.99998432397842407
      ],
      "min": [
        -0.9999503493309021,
        -0.99999868869781494,
        -0.99988251924514771
      ],
      "type": "VEC3"
    },
    {
      "bufferView": 3,
      "byteOffset": 3145536,
      "componentType": 5126,
      "count": 57921,
      "max": [
        0.99999368190765381,
        0.99999511241912842,
        0.99999707937240601,
        1
      ],
      "min": [
        -0.99998211860656738,
        -0.98876315355300903,
        -0.99996566772460938,
        -1
      ],
      "type": "VEC4"
    },
    {
      "bufferView": 1,
      "byteOffset": 1572768,
      "componentType": 5126,
      "count": 57921,
      "max": [
        0.99993699789047241,
        0.99990588426589966
      ],
      "min": [
        5.8566194638842717e-05,
        0.00015223026275634766
      ],
      "type": "VEC2"
    },
    {
      "bufferView": 0,
      "byteOffset": 3421128,
      "componentType": 5125,
      "count": 156330,
      "max": [
        57920
      ],
      "min": [
        0
      ],
      "type": "SCALAR"
    }
  ],
  "asset": {
    "extras": {
      "author": "nedo (https://sketchfab.com/nedo)",
      "license": "CC-BY-4.0 (http://creativecommons.org/licenses/by/4.0/)",
      "source": "https://sketchfab.com/models/5c9785edaae54a9591949ad908680a91",
      "title": "Relax leather chair / Relax Ledersessel"
    },
    "generator": "Sketchfab-3.41.1",
    "version": "2.0"
  },
  "bufferViews": [
    {
      "buffer": 0,
      "byteLength": 4046448,
      "byteOffset": 0,
      "name": "floatBufferViews",
      "target": 34963
    },
    {
      "buffer": 0,
      "byteLength": 2036136,
      "byteOffset": 4046448,
      "byteStride": 8,
      "name": "floatBufferViews",
      "target": 34962
    },
    {
      "buffer": 0,
      "byteLength": 6108408,
      "byteOffset": 6082584,
      "byteStride": 12,
      "name": "floatBufferViews",
      "target": 34962
    },
    {
      "buffer": 0,
      "byteLength": 4072272,
      "byteOffset": 12190992,
      "byteStride": 16,
      "name": "floatBufferViews",
      "target": 34962
    }
  ],
  "buffers": [
    {
      "byteLength": 16263264,
      "uri": "scene.bin"
    }
  ],
  "extensionsUsed": [
    "KHR_materials_unlit"
  ],
  "images": [
    {
      "uri": "textures/Material0_baseColor.jpeg"
    }
  ],
  "materials": [
    {
      "doubleSided": true,
      "extensions": {
        "KHR_materials_unlit": {}
      },
      "name": "Material0",
      "pbrMetallicRoughness": {
        "baseColorFactor": [
          1,
          1,
          1,
          1
        ],
        "baseColorTexture": {
          "index": 0,
          "texCoord": 0
        },
        "metallicFactor": 0,
        "roughnessFactor": 1
      }
    }
  ],
  "meshes": [
    {
      "name": "Stereo textured mesh_Material0_0",
      "primitives": [
        {
          "attributes": {
            "NORMAL": 1,
            "POSITION": 0,
            "TANGENT": 2,
            "TEXCOORD_0": 3
          },
          "indices": 4,
          "material": 0,
          "mode": 4
        }
      ]
    },
    {
      "name": "Stereo textured mesh_Material0_0",
      "primitives": [
        {
          "attributes": {
            "NORMAL": 6,
            "POSITION": 5,
            "TANGENT": 7,
            "TEXCOORD_0": 8
          },
          "indices": 9,
          "material": 0,
          "mode": 4
        }
      ]
    },
    {
      "name": "Stereo textured mesh_Material0_0",
      "primitives": [
        {
          "attributes": {
            "NORMAL": 11,
            "POSITION": 10,
            "TANGENT": 12,
            "TEXCOORD_0": 13
          },
          "indices": 14,
          "material": 0,
          "mode": 4
        }
      ]
    },
    {
      "name": "Stereo textured mesh_Material0_0",
      "primitives": [
        {
          "attributes": {
            "NORMAL": 16,
            "POSITION": 15,
            "TANGENT": 17,
            "TEXCOORD_0": 18
          },
          "indices": 19,
          "material": 0,
          "mode": 4
        }
      ]
    }
  ],
  "nodes": [
    {
      "children": [
        1
      ],
      "name": "RootNode (gltf orientation matrix)",
      "rotation": [
        -0.70710678118654746,
        -0,
        -0,
        0.70710678118654757
      ]
    },
    {
      "children": [
        2
      ],
      "matrix": [
        0.99992156028747559,
        0.00012066180352121592,
        0.01252333540469408,
        0,
        -0.0003742602129932493,
        0.99979490041732788,
        0.020249702036380768,
        0,
        -0.0125183230265975,
        -0.020252801477909088,
        0.99971652030944824,
        0,
        1.5821629762649536,
        2.5448710918426514,
        -0.71480488777160645,
        1
      ],
      "name": "RootNode (model correction matrix)"
    },
    {
      "children": [
        3
      ],
      "matrix": [
        1,
        0,
        0,
        0,
        0,
        0,
        1,
        0,
        0,
        -1,
        0,
        0,
        0,
        0,
        0,
        1
      ],
      "name": "sketchfabTemp.obj.fbx"
    },
    {
      "children": [
        4
      ],
      "name": "RootNode"
    },
    {
      "children": [
        5,
        6,
        7,
        8
      ],
      "name": "Stereo textured mesh"
    },
    {
      "mesh": 0,
      "name": "Stereo textured mesh_Material0_0"
    },
    {
      "mesh": 1,
      "name": "Stereo textured mesh_Material0_0"
    },
    {
      "mesh": 2,
      "name": "Stereo textured mesh_Material0_0"
    },
    {
      "mesh": 3,
      "name": "Stereo textured mesh_Material0_0"
    }
  ],
  "samplers": [
    {
      "magFilter": 9729,
      "minFilter": 9987,
      "wrapS": 10497,
      "wrapT": 10497
    }
  ],
  "scene": 0,
  "scenes": [
    {
      "name": "OSG_Scene",
      "nodes": [
        0
      ]
    }
  ],
  "textures": [
    {
      "sampler": 0,
      "source": 0
    }
  ]
}

